<?xml version="1.0" encoding="UTF-8" standalone="no"?>
<svg width="301px" height="210px" viewBox="0 0 301 210" version="1.1" xmlns="http://www.w3.org/2000/svg" xmlns:xlink="http://www.w3.org/1999/xlink" xmlns:sketch="http://www.bohemiancoding.com/sketch/ns">
    <!-- Generator: sketchtool 3.4.4 (395) - http://www.bohemiancoding.com/sketch -->
    <title>logo_principal</title>
    <desc>Created with sketchtool.</desc>
    <defs></defs>
    <g id="Page-1" stroke="none" stroke-width="1" fill="none" fill-rule="evenodd" sketch:type="MSPage">
        <g id="Landing" sketch:type="MSArtboardGroup" transform="translate(-566.000000, -200.000000)" fill="#FFFFFF">
            <g id="logo_principal" sketch:type="MSLayerGroup" transform="translate(566.000000, 200.000000)">
                <path d="M151.5,113 C121.999769,113 98,89.0002308 98,59.5 C98,29.9997692 121.999769,6 151.5,6 C181.000231,6 205,29.9997692 205,59.5 C205,89.0002308 181.000937,113 151.5,113 L151.5,113 Z" id="Shape-Copy-2" opacity="0.3" sketch:type="MSShapeGroup"></path>
                <g id="Group" sketch:type="MSShapeGroup">
                    <path d="M0.241158338,147.92269 C0.0799187516,147.604609 1.0658141e-14,147.28444 1.0658141e-14,146.965663 C1.0658141e-14,146.328805 0.226436463,145.771293 0.682113555,145.294519 C1.13638856,144.815658 1.73648024,144.576923 2.48519276,144.576923 C2.96750943,144.576923 3.4210834,144.723783 3.84941987,145.01472 C4.27775634,145.307048 4.59813238,145.666194 4.81124905,146.089374 L19.8899546,186.223268 L34.8088226,146.089374 C35.0219392,145.666194 35.3296965,145.307744 35.7320945,145.01472 C36.1323893,144.724479 36.5999841,144.576923 37.1355799,144.576923 C37.8842924,144.576923 38.4717654,144.816354 38.9001018,145.294519 C39.3263352,145.771293 39.541555,146.328805 39.541555,146.965663 C39.541555,147.392323 39.4875748,147.7111 39.3817175,147.92269 L22.2973317,193.631006 C22.0821119,194.10778 21.747014,194.535136 21.2948421,194.904027 C20.838464,195.275701 20.3715702,195.461538 19.8899546,195.461538 C19.3564618,195.461538 18.8741452,195.262477 18.4479118,194.863657 C18.0181733,194.46623 17.7251379,194.055578 17.5653004,193.631006 L0.241158338,147.92269 L0.241158338,147.92269 Z" id="Shape"></path>
                    <path d="M62.4997541,144.576923 C66.0114345,144.576923 69.3096515,145.243711 72.3964981,146.574493 C75.4840423,147.905275 78.1844226,149.729689 80.4969416,152.04634 C82.8136461,154.36299 84.6357575,157.065749 85.9639735,160.153917 C87.2956775,163.242784 87.9597855,166.545303 87.9597855,170.060076 C87.9597855,173.573453 87.2956775,176.878066 85.9639735,179.96414 C84.6357575,183.054403 82.8136461,185.743896 80.4969416,188.033316 C78.183725,190.322038 75.4833447,192.133187 72.3964981,193.463969 C69.308954,194.796846 66.0107369,195.461538 62.4997541,195.461538 C58.9880738,195.461538 55.6898567,194.796846 52.6023125,193.463969 C49.5182563,192.133187 46.8297351,190.322038 44.5423294,188.033316 C42.2556214,185.744594 40.4439738,183.054403 39.1164554,179.96414 C37.7847514,176.877367 37.1206434,173.572754 37.1206434,170.060076 C37.1206434,166.545303 37.7847514,163.242086 39.1164554,160.153917 C40.4446714,157.06505 42.2556214,154.36299 44.5423294,152.04634 C46.8290375,149.729689 49.5182563,147.905275 52.6023125,146.574493 C55.6905543,145.243711 58.9880738,144.576923 62.4997541,144.576923 L62.4997541,144.576923 Z M62.4997541,149.530002 C59.6814806,149.530002 57.0215607,150.061338 54.5206917,151.126801 C52.0198228,152.191567 49.8503103,153.657801 48.0135494,155.520617 C46.1802765,157.384829 44.7306794,159.56882 43.6640606,162.070495 C42.5981393,164.575661 42.0672714,167.237924 42.0672714,170.060076 C42.0672714,172.882228 42.5981393,175.54449 43.6640606,178.04826 C44.7299818,180.55203 46.1795789,182.72066 48.0135494,184.557642 C49.8503103,186.396021 52.0198228,187.846895 54.5206917,188.912358 C57.0215607,189.977124 59.6814806,190.509157 62.4997541,190.509157 C65.3215155,190.509157 67.9814355,189.977822 70.4823044,188.912358 C72.9831734,187.847593 75.1631497,186.396021 77.0264192,184.557642 C78.888991,182.721358 80.3504472,180.55203 81.4163684,178.04826 C82.4788017,175.545189 83.0131575,172.882926 83.0131575,170.060076 C83.0131575,167.237924 82.4781041,164.575661 81.4163684,162.070495 C80.3504472,159.569518 78.8896886,157.385527 77.0264192,155.520617 C75.1638473,153.657801 72.9831734,152.192265 70.4823044,151.126801 C67.9814355,150.061338 65.3215155,149.530002 62.4997541,149.530002 L62.4997541,149.530002 Z" id="Shape"></path>
                    <path d="M92.8016086,147.046401 C92.8016086,146.35595 93.0364298,145.771293 93.5053897,145.294519 C93.9729844,144.815658 94.5463851,144.576923 95.223544,144.576923 C95.8986551,144.576923 96.4720559,144.816354 96.9416984,145.294519 C97.409293,145.771293 97.6434316,146.35595 97.6434316,147.046401 L97.6434316,192.994148 C97.6434316,193.6846 97.4086104,194.267168 96.9416984,194.74603 C96.4720559,195.222804 95.8986551,195.461538 95.223544,195.461538 C94.5463851,195.461538 93.9729844,195.222108 93.5053897,194.74603 C93.0357472,194.267168 92.8016086,193.6846 92.8016086,192.994148 L92.8016086,147.046401 L92.8016086,147.046401 Z" id="Shape"></path>
                    <path d="M104.906166,147.046334 C104.906166,146.355901 105.143227,145.77126 105.616659,145.2945 C106.09078,144.815651 106.667581,144.576923 107.351197,144.576923 L120.912574,144.576923 C124.381652,144.576923 127.639855,145.241604 130.687875,146.568181 C133.736583,147.894759 136.405581,149.713409 138.690045,152.022739 C140.976576,154.33207 142.777272,157.028377 144.09213,160.1047 C145.404233,163.185199 146.061662,166.475891 146.061662,169.979559 C146.061662,173.483227 145.403544,176.788534 144.09213,179.892698 C142.776582,182.998949 140.976576,185.706392 138.690045,188.015722 C136.404892,190.325053 133.735894,192.143703 130.687875,193.47028 C127.639166,194.798946 124.381652,195.461538 120.912574,195.461538 L107.351197,195.461538 C106.667581,195.461538 106.09078,195.222114 105.616659,194.74605 C105.142538,194.267201 104.906166,193.684649 104.906166,192.994216 L104.906166,147.046334 L104.906166,147.046334 Z M109.79485,149.514352 L109.79485,190.523413 L120.913264,190.523413 C123.697346,190.523413 126.326375,189.980532 128.796904,188.891291 C131.265365,187.803442 133.420962,186.331401 135.261626,184.47099 C137.101602,182.61406 138.546706,180.43697 139.598318,177.941807 C140.64924,175.448733 141.175735,172.792794 141.175735,169.978863 C141.175735,167.165628 140.64924,164.511777 139.598318,162.016614 C138.547395,159.521451 137.102291,157.346449 135.261626,155.486039 C133.421651,153.629109 131.266054,152.169595 128.796904,151.108194 C126.326375,150.046793 123.696657,149.515048 120.913264,149.515048 L109.79485,149.515048 L109.79485,149.514352 Z" id="Shape"></path>
                    <path d="M183.051668,188.108464 C181.287405,190.081581 179.161457,191.773822 176.676629,193.185188 C174.189698,194.598649 171.502298,195.304332 168.616532,195.304332 C165.942451,195.304332 163.444304,194.823629 161.118589,193.865019 C158.792874,192.906408 156.746833,191.574694 154.98257,189.867081 C153.218307,188.162264 151.828345,186.137443 150.812684,183.79262 C149.797024,181.4464 149.289544,178.889872 149.289544,176.116749 C149.289544,173.452622 149.784407,170.935221 150.774133,168.563149 C151.761756,166.193173 153.125783,164.127828 154.864111,162.369211 C156.600337,160.610594 158.659695,159.22508 161.03728,158.21267 C163.416968,157.20026 165.996423,156.692308 168.776347,156.692308 C171.343185,156.692308 173.789462,157.213535 176.115177,158.251098 C178.440892,159.290757 180.485531,160.689546 182.249794,162.448163 C184.014057,164.206781 185.417337,166.25885 186.460334,168.603673 C187.501929,170.949894 188.024129,173.45332 188.024129,176.116749 L188.024129,192.984662 C188.024129,193.677768 187.783006,194.262577 187.301461,194.743279 C186.819215,195.221886 186.232529,195.461538 185.537197,195.461538 C184.841866,195.461538 184.25518,195.221187 183.772934,194.743279 C183.290688,194.262577 183.052369,193.677768 183.052369,192.984662 L183.052369,188.107766 L183.051668,188.107766 L183.051668,188.108464 Z M183.051668,176.117447 C183.051668,174.148523 182.675264,172.28021 181.928764,170.521593 C181.180161,168.762976 180.149781,167.233531 178.841128,165.925572 C177.531073,164.621107 175.994615,163.596121 174.230352,162.847817 C172.466089,162.103706 170.593881,161.728507 168.616532,161.728507 C166.637081,161.728507 164.778191,162.103706 163.041965,162.847817 C161.30574,163.596121 159.780497,164.621107 158.471844,165.925572 C157.161789,167.233531 156.131409,168.762976 155.384208,170.521593 C154.633502,172.28021 154.261304,174.147824 154.261304,176.117447 C154.261304,178.090564 154.634203,179.943505 155.384208,181.674175 C156.130708,183.40694 157.161088,184.925206 158.471844,186.229671 C159.780497,187.53763 161.305039,188.562616 163.041965,189.307426 C164.778191,190.055729 166.637782,190.426737 168.616532,190.426737 C170.54061,190.426737 172.358144,190.066908 174.068435,189.34795 C175.778726,188.629691 177.289249,187.629858 178.599304,186.349847 C179.909359,185.071932 180.950954,183.566243 181.727595,181.833478 C182.502833,180.102109 182.944424,178.197465 183.051668,176.117447 L183.051668,176.117447 Z" id="Shape"></path>
                    <path d="M192.059682,159.168762 C192.059682,158.47787 192.300814,157.891065 192.782376,157.410445 C193.262537,156.93192 193.849945,156.692308 194.544601,156.692308 C195.239256,156.692308 195.828767,156.932618 196.308928,157.410445 C196.791191,157.891065 197.031622,158.47787 197.031622,159.168762 L197.031622,163.16532 C198.795949,161.194635 200.907253,159.661259 203.366236,158.570082 C205.825919,157.478207 208.500098,156.93192 211.38737,156.93192 C214.11342,156.93192 216.652313,157.437689 219.004749,158.449927 C221.358587,159.462164 223.402598,160.847442 225.14099,162.60576 C226.877278,164.364077 228.254673,166.401826 229.27037,168.719703 C230.286068,171.037581 230.793566,173.503557 230.793566,176.11344 C230.793566,178.77851 230.272749,181.28151 229.231116,183.625235 C228.188082,185.971056 226.784751,188.021379 225.020424,189.779696 C223.256097,191.538014 221.209982,192.93866 218.885585,193.976047 C216.559785,195.015529 214.11342,195.534571 211.546489,195.534571 C208.551269,195.429086 205.825218,194.668336 203.365535,193.257211 C200.905851,191.846086 198.795248,190.179981 197.030921,188.26099 L197.030921,207.523545 C197.030921,208.214438 196.789789,208.801242 196.308227,209.281863 C195.828066,209.760388 195.239256,210 194.5439,210 C193.848543,210 193.261836,209.75969 192.781675,209.281863 C192.299412,208.801242 192.058981,208.214438 192.058981,207.523545 L192.059682,159.168762 L192.059682,159.168762 Z M197.032323,176.114138 C197.084194,178.191705 197.514586,180.110696 198.314386,181.867616 C199.11699,183.625934 200.160025,185.146037 201.44279,186.423734 C202.724854,187.701431 204.222814,188.701094 205.933167,189.421326 C207.64352,190.139463 209.461821,190.499929 211.38737,190.499929 C213.36479,190.499929 215.237066,190.126889 217.001393,189.380809 C218.76572,188.634729 220.302233,187.609917 221.612336,186.303578 C222.921036,185.000034 223.949351,183.466658 224.700083,181.708341 C225.44661,179.950023 225.823028,178.08622 225.823028,176.11344 C225.823028,174.142755 225.44661,172.290129 224.700083,170.559056 C223.949351,168.826586 222.921036,167.308578 221.612336,166.002938 C220.302233,164.697299 218.76572,163.671788 217.001393,162.925708 C215.237066,162.179628 213.36479,161.806588 211.38737,161.806588 C209.461821,161.806588 207.64352,162.166355 205.933167,162.88519 C204.222814,163.605423 202.724854,164.579239 201.44279,165.803844 C200.160726,167.030545 199.11699,168.480092 198.314386,170.15947 C197.513885,171.838849 197.083493,173.635588 197.032323,175.554578 L197.032323,176.114138 L197.032323,176.114138 Z" id="Shape"></path>
                    <path d="M233.215178,159.168762 C233.215178,158.47787 233.45631,157.891065 233.937872,157.410445 C234.418033,156.93192 235.005441,156.692308 235.700097,156.692308 C236.394752,156.692308 236.984263,156.932618 237.464424,157.410445 C237.946687,157.891065 238.187118,158.47787 238.187118,159.168762 L238.187118,163.16532 C239.951445,161.194635 242.062749,159.661259 244.521732,158.570082 C246.981415,157.478207 249.655594,156.93192 252.542866,156.93192 C255.268916,156.93192 257.807809,157.437689 260.160245,158.449927 C262.514083,159.462164 264.558094,160.847442 266.296486,162.60576 C268.032774,164.364077 269.410169,166.401826 270.425866,168.719703 C271.441564,171.037581 271.949062,173.503557 271.949062,176.11344 C271.949062,178.77851 271.428245,181.28151 270.386612,183.625235 C269.343577,185.971056 267.940247,188.021379 266.17592,189.779696 C264.411593,191.538014 262.365478,192.93866 260.041081,193.976047 C257.715281,195.015529 255.268916,195.534571 252.701985,195.534571 C249.706764,195.429086 246.980714,194.668336 244.521031,193.257211 C242.061347,191.846086 239.950744,190.179981 238.186417,188.26099 L238.186417,207.523545 C238.186417,208.214438 237.945285,208.801242 237.463723,209.281863 C236.983562,209.760388 236.394752,210 235.699396,210 C235.004039,210 234.417332,209.75969 233.937171,209.281863 C233.454908,208.801242 233.214477,208.214438 233.214477,207.523545 L233.215178,159.168762 L233.215178,159.168762 Z M238.187819,176.114138 C238.23969,178.191705 238.670082,180.110696 239.469882,181.867616 C240.272486,183.625934 241.315521,185.146037 242.598286,186.423734 C243.88035,187.701431 245.37831,188.701094 247.088663,189.421326 C248.799016,190.139463 250.617317,190.499929 252.542866,190.499929 C254.520286,190.499929 256.392562,190.126889 258.156889,189.380809 C259.921216,188.634729 261.457729,187.609917 262.767832,186.303578 C264.075831,185.000034 265.104847,183.466658 265.855579,181.708341 C266.602106,179.950023 266.978524,178.08622 266.978524,176.11344 C266.978524,174.142755 266.602106,172.290129 265.855579,170.559056 C265.104847,168.826586 264.076532,167.308578 262.767832,166.002938 C261.457729,164.697299 259.921216,163.671788 258.156889,162.925708 C256.392562,162.179628 254.520286,161.806588 252.542866,161.806588 C250.617317,161.806588 248.799016,162.166355 247.088663,162.88519 C245.37831,163.605423 243.88035,164.579239 242.598286,165.803844 C241.316222,167.030545 240.272486,168.480092 239.469882,170.15947 C238.669381,171.838849 238.238989,173.635588 238.187819,175.554578 L238.187819,176.114138 L238.187819,176.114138 Z" id="Shape"></path>
                    <path d="M273.869324,166.764343 C273.869324,164.90029 274.239263,163.328281 274.983312,162.048316 C275.723884,160.770448 276.705751,159.730127 277.926826,158.931547 C279.145815,158.131569 280.52474,157.558659 282.063601,157.21142 C283.600375,156.865578 285.139931,156.692308 286.678792,156.692308 C287.950629,156.692308 289.30452,156.839727 290.736294,157.131771 C292.168762,157.425213 293.492752,157.865376 294.713132,158.450862 C295.932121,159.038444 296.941107,159.756677 297.73731,160.608356 C298.531426,161.461433 298.93057,162.475903 298.93057,163.646875 C298.93057,164.234457 298.729607,164.805271 298.333244,165.364906 C297.936882,165.924541 297.285317,166.20331 296.384114,166.20331 C295.376518,166.20331 294.606045,165.617824 294.076866,164.444757 C293.598449,163.434479 292.670126,162.675024 291.293287,162.16709 C289.912972,161.661253 288.375502,161.407635 286.678096,161.407635 C285.775502,161.407635 284.859696,161.476105 283.933459,161.607455 C283.005136,161.742299 282.168602,162.007794 281.427334,162.407433 C280.68259,162.806374 280.060926,163.355529 279.557476,164.045816 C279.05194,164.738897 278.801606,165.645073 278.801606,166.762946 C278.801606,167.562923 279.051245,168.255306 279.557476,168.840792 C280.060926,169.428374 280.697193,169.921635 281.466275,170.320576 C282.234662,170.719517 283.084408,171.028329 284.012731,171.240725 C284.941054,171.453121 285.829046,171.639666 286.678792,171.798963 C288.640439,172.120352 290.483178,172.585666 292.207703,173.199099 C293.930142,173.812532 295.441188,174.597837 296.742926,175.556413 C298.041188,176.517086 299.075903,177.662207 299.844985,178.994571 C300.614068,180.326936 301,181.873094 301,183.631648 C301,185.390202 300.628671,187.003432 299.886012,188.467846 C299.143354,189.932958 298.121156,191.184976 296.822894,192.2232 C295.523242,193.262822 293.998984,194.0628 292.24873,194.622435 C290.498476,195.18207 288.641134,195.461538 286.679487,195.461538 C283.337524,195.461538 280.406527,194.689507 277.88719,193.143349 C275.368549,191.599287 273.684355,189.467644 272.834609,186.747719 C272.781066,186.588422 272.756032,186.348778 272.756032,186.029486 C272.756032,185.336404 272.982028,184.72367 273.43263,184.191982 C273.883232,183.660294 274.478471,183.392004 275.223216,183.392004 C275.805938,183.392004 276.322601,183.565973 276.773202,183.911116 C277.223804,184.258356 277.581921,184.72367 277.848945,185.309855 C278.536668,187.016707 279.716717,188.30785 281.388393,189.187477 C283.06007,190.067103 284.822841,190.506567 286.679487,190.506567 C289.277401,190.506567 291.492859,189.907806 293.322386,188.709586 C295.151913,187.508571 296.067023,185.818487 296.067023,183.633045 C296.067023,181.874492 295.163734,180.382131 293.362718,179.157362 C291.55892,177.930496 289.330945,177.132614 286.679487,176.757428 C282.860498,176.22574 279.77026,175.172145 277.411555,173.600136 C275.049373,172.029524 273.869324,169.749762 273.869324,166.764343 L273.869324,166.764343 Z" id="Shape"></path>
                    <path d="M209.241933,45.0961228 C202.523694,19.1899873 178.916664,-1.63424829e-13 150.904528,-1.63424829e-13 C122.893088,-1.63424829e-13 99.2853634,19.1892927 92.5671244,45.0954282 L77.4691689,60.1730769 L92.5664289,75.2500311 C99.2846679,101.156167 122.892393,120.346154 150.903833,120.346154 C178.915969,120.346154 202.524389,101.155472 209.241237,75.248642 L224.337802,60.1723824 L209.241933,45.0961228 L209.241933,45.0961228 Z M150.903833,112.824346 C121.832497,112.824346 98.1816527,89.2053121 98.1816527,60.1730769 C98.1816527,31.1408418 121.832497,7.52180825 150.903833,7.52180825 C179.975169,7.52180825 203.626013,31.1408418 203.626013,60.1730769 C203.626013,89.2053121 179.975865,112.824346 150.903833,112.824346 L150.903833,112.824346 Z" id="Shape"></path>
                </g>
            </g>
        </g>
    </g>
</svg>